<svg xmlns="http://www.w3.org/2000/svg" width="746" height="758" fill="none" xmlns:v="https://vecta.io/nano"><g stroke-width="2.5"><path d="M469.85 481.742C401.876 548.385 329.382 597.461 267.163 622.959C236.051 635.709 207.569 642.538 183.54 642.761C159.516 642.983 140.057 636.607 126.788 623.073C113.519 609.539 107.528 589.957 108.226 565.943C108.923 541.923 116.314 513.582 129.677 482.727C156.399 421.025 206.899 349.515 274.872 282.872C342.845 216.229 415.34 167.153 477.558 141.655C508.67 128.905 537.153 122.076 561.181 121.853C585.205 121.631 604.664 128.007 617.933 141.541C631.202 155.075 637.193 174.657 636.496 198.671C635.798 222.691 628.407 251.032 615.045 281.887C588.322 343.589 537.823 415.099 469.85 481.742Z" stroke="url(#A)"/><path opacity=".7" d="M522.424 239.83C583.776 305.677 622.517 380.864 635.605 449.147C648.696 517.449 636.099 578.645 595.088 616.855C554.077 655.066 492.145 663.311 424.937 645.43C357.749 627.554 285.485 583.601 224.134 517.754C162.783 451.906 124.041 376.72 110.954 308.437C97.8624 240.134 110.46 178.939 151.47 140.728C192.481 102.518 254.413 94.2725 321.621 112.153C388.809 130.029 461.073 173.983 522.424 239.83Z" stroke="url(#B)"/></g><defs><linearGradient id="A" x1="360.707" y1="189.026" x2="475.983" y2="471.847" gradientUnits="userSpaceOnUse"><stop stop-color="#fff"/><stop offset="1" stop-color="#fff" stop-opacity="0"/></linearGradient><linearGradient id="B" x1="192.447" y1="497.622" x2="492.451" y2="198.333" gradientUnits="userSpaceOnUse"><stop offset=".032" stop-color="#7b7b7b"/><stop offset="1" stop-color="#1d1e22" stop-opacity="0"/></linearGradient></defs></svg>